<svg width="40" height="40" viewBox="0 0 40 40" fill="none" xmlns="http://www.w3.org/2000/svg">
<path d="M13.781 4.0163L7.5 8.22564L7.58264 15.5721L7.70661 22.9583L13.6157 25.8572L19.4835 28.7561V34.2759C19.4835 37.2939 19.6488 39.8751 19.8554 39.9943C20.062 40.1134 22.9545 38.3661 26.343 36.1423L32.5 32.0521V24.5071V17.0017L26.6322 14.222L20.8058 11.4422L20.7645 5.80329C20.7231 2.70585 20.5992 0.084938 20.4339 0.00551605C20.2273 -0.113617 17.2521 1.71308 13.781 4.0163ZM19.4835 14.6191V27.5648L14.1116 24.8645L8.73967 22.1641V15.4133V8.62275L14.0289 5.16792C16.9215 3.2618 19.3182 1.71308 19.4008 1.71308C19.4421 1.71308 19.4835 7.51085 19.4835 14.6191ZM31.4669 24.5865V31.4167L27.6653 33.9185C25.5579 35.2687 23.1198 36.9365 22.2934 37.5719L20.7231 38.7235V25.6587V12.5938L26.095 15.175L31.4669 17.7959V24.5865Z" fill="#0f4fe1"/>
</svg>

