<svg width="13" height="13" fill="none" xmlns="http://www.w3.org/2000/svg"><path d="M1.345 8.635a5.541 5.541 0 0 1 0-4.269 5.557 5.557 0 0 1 1.438-2.029L4.65 4.204V.464H.91l1.223 1.223a6.498 6.498 0 0 0 3.375 11.236l.14-.909a5.543 5.543 0 0 1-4.303-3.379ZM12.502 8.987a6.456 6.456 0 0 0 0-4.974A6.498 6.498 0 0 0 7.489.077l-.141.91a5.543 5.543 0 0 1 4.303 3.379 5.541 5.541 0 0 1 0 4.269 5.555 5.555 0 0 1-1.437 2.029L8.347 8.797v3.74h3.74l-1.221-1.221a6.475 6.475 0 0 0 1.636-2.329Z" fill="#fff"/></svg>
